<svg width="38" height="38" viewBox="0 0 38 38" fill="none" xmlns="http://www.w3.org/2000/svg">
<g clip-path="url(#clip0_2_40)">
<path d="M28.5 9.50002H25.3333C25.3333 6.00085 22.4992 3.16669 19 3.16669C15.5008 3.16669 12.6667 6.00085 12.6667 9.50002H9.50001C7.75834 9.50002 6.33334 10.925 6.33334 12.6667V31.6667C6.33334 33.4084 7.75834 34.8334 9.50001 34.8334H28.5C30.2417 34.8334 31.6667 33.4084 31.6667 31.6667V12.6667C31.6667 10.925 30.2417 9.50002 28.5 9.50002ZM19 6.33335C20.7417 6.33335 22.1667 7.75835 22.1667 9.50002H15.8333C15.8333 7.75835 17.2583 6.33335 19 6.33335ZM28.5 31.6667H9.50001V12.6667H12.6667V15.8334C12.6667 16.7042 13.3792 17.4167 14.25 17.4167C15.1208 17.4167 15.8333 16.7042 15.8333 15.8334V12.6667H22.1667V15.8334C22.1667 16.7042 22.8792 17.4167 23.75 17.4167C24.6208 17.4167 25.3333 16.7042 25.3333 15.8334V12.6667H28.5V31.6667Z" fill="#F4F6FF"/>
</g>
<defs>
<clipPath id="clip0_2_40">
<rect width="38" height="38" fill="white"/>
</clipPath>
</defs>
</svg>
